<?xml version="1.0" encoding="UTF-8" standalone="no"?>
<svg
   xmlns:dc="http://purl.org/dc/elements/1.1/"
   xmlns:cc="http://creativecommons.org/ns#"
   xmlns:rdf="http://www.w3.org/1999/02/22-rdf-syntax-ns#"
   xmlns:svg="http://www.w3.org/2000/svg"
   xmlns="http://www.w3.org/2000/svg"
   xmlns:sodipodi="http://sodipodi.sourceforge.net/DTD/sodipodi-0.dtd"
   xmlns:inkscape="http://www.inkscape.org/namespaces/inkscape"
   width="483.77954"
   height="483.77954"
   viewBox="0 0 619.23781 619.23781"
   version="1.1"
   id="svg8"
   inkscape:version="1.0.1 (3bc2e813f5, 2020-09-07)"
   inkscape:export-filename="C:\Users\vince\Workspace\flutter_apps\convida\web\favicon.png"
   inkscape:export-xdpi="15.36"
   inkscape:export-ydpi="15.36"
   sodipodi:docname="logo_font.svg">
  <defs
     id="defs2">
    <rect
       x="0"
       y="0"
       width="14.552083"
       height="14.552083"
       id="rect837" />
  </defs>
  <sodipodi:namedview
     id="base"
     pagecolor="#ffffff"
     bordercolor="#666666"
     borderopacity="1.0"
     inkscape:pageopacity="0.0"
     inkscape:pageshadow="2"
     inkscape:zoom="2.0281205"
     inkscape:cx="256.83088"
     inkscape:cy="112.2779"
     inkscape:document-units="mm"
     inkscape:current-layer="layer1"
     inkscape:document-rotation="0"
     showgrid="false"
     units="px"
     inkscape:window-width="2560"
     inkscape:window-height="1506"
     inkscape:window-x="-11"
     inkscape:window-y="-11"
     inkscape:window-maximized="1"
     viewbox-height="128"
     fit-margin-top="0"
     fit-margin-left="0"
     fit-margin-right="0"
     fit-margin-bottom="0">
    <inkscape:grid
       type="xygrid"
       id="grid833"
       originx="-1.1426763e-07"
       originy="0" />
  </sodipodi:namedview>
  <metadata
     id="metadata5">
    <rdf:RDF>
      <cc:Work
         rdf:about="">
        <dc:format>image/svg+xml</dc:format>
        <dc:type
           rdf:resource="http://purl.org/dc/dcmitype/StillImage" />
        <dc:title></dc:title>
      </cc:Work>
    </rdf:RDF>
  </metadata>
  <g
     inkscape:label="Layer 1"
     inkscape:groupmode="layer"
     id="layer1">
    <path
       id="path854"
       style="font-style:normal;font-variant:normal;font-weight:bold;font-stretch:normal;font-size:2.11667px;line-height:0.95;font-family:'Century Schoolbook';-inkscape-font-specification:'Century Schoolbook Bold';text-align:center;text-anchor:middle;white-space:pre;fill:#000000;fill-opacity:1;stroke:none;stroke-width:137.621"
       d="m 614.43134,593.0664 4.80646,12.72817 q -6.98084,7.42475 -12.58822,10.25334 -5.49309,2.82841 -12.1307,2.82841 -9.84192,0 -15.90723,-6.36409 -6.06553,-6.54095 -11.10092,-24.39574 -11.67293,17.85486 -20.94264,24.39574 -9.26968,6.36409 -20.94261,6.36409 -16.13613,0 -25.17691,-11.49068 -9.04083,-11.49067 -9.04083,-29.16882 0,-26.6939 16.70833,-42.78093 13.38953,-12.7282 58.70799,-25.45644 v -23.86542 q 0,-14.14238 -6.06534,-22.98149 -6.06534,-9.01581 -16.25056,-9.01581 -7.78194,0 -13.73285,5.12658 -4.00548,3.35882 -4.00548,6.71764 0,1.76772 1.48782,5.30345 3.20435,7.95515 3.20435,15.73344 0,9.89977 -4.23433,16.08702 -4.23436,6.01054 -11.32961,6.01054 -7.5531,0 -12.13072,-6.54096 -4.57761,-6.71765 -4.57761,-17.14774 0,-17.14771 12.01628,-30.2295 14.99172,-16.26388 37.30761,-16.26388 16.82278,0 29.86899,8.13186 8.35419,5.12658 13.50399,18.03162 5.26422,12.72818 5.26422,31.46699 v 83.97086 q 0,9.54622 2.28897,13.78883 2.28896,4.24279 6.29421,4.24279 3.31874,0 8.69746,-5.48029 z m -47.60728,-67.70703 q -24.4903,5.12656 -33.18778,15.91031 -8.58306,10.60688 -8.58306,28.10814 0,12.37463 4.00548,19.09231 4.11983,6.54095 11.44406,6.54095 11.3296,0 18.76825,-12.55149 7.55307,-12.5515 7.55307,-34.29548 z M 303.12916,352.11421 h 93.06837 q 25.37164,0 44.54653,16.61626 19.17488,16.61623 30.04845,47.32004 10.87353,30.70389 10.87353,69.17399 0,39.91503 -9.93821,69.53521 -9.93818,29.43954 -29.69767,46.9588 -19.75946,17.51924 -42.44197,17.51924 H 303.12916 V 602.441 h 14.38117 q 5.26141,0 7.95055,-4.3347 2.68916,-4.51522 2.68916,-12.46223 v -201.2005 q 0,-8.12752 -2.80614,-11.73964 -2.80599,-3.7929 -9.47044,-3.7929 h -12.7443 z m 85.00089,250.32674 q 16.01803,0 28.41154,-12.46223 12.39353,-12.4622 17.88878,-33.95485 5.49525,-21.67331 5.49525,-67.00666 0,-47.68127 -6.54754,-72.96679 -6.43059,-25.46613 -17.53802,-36.12218 -11.10733,-10.83669 -32.62071,-10.83669 -11.80891,0 -14.84883,3.07038 -2.92295,3.07038 -2.92295,11.19791 v 202.10359 q 0,9.03047 2.33835,13.00397 2.45532,3.97351 7.71671,3.97351 z M 196.61502,352.11421 h 88.62538 v 16.79682 h -16.01805 q -5.14446,0 -7.48288,3.25106 -2.33859,3.07041 -2.33859,9.21117 v 206.7995 q 0,7.22438 2.45528,10.29476 3.15683,3.97353 9.11975,3.97353 h 14.26424 v 16.79675 h -88.62513 v -16.79675 h 13.56273 q 7.01522,0 9.82133,-3.61229 2.92297,-3.61228 2.92297,-10.656 V 383.72113 q 0,-7.5856 -2.68913,-11.19788 -2.57229,-3.61222 -8.18445,-3.61222 h -15.43345 z m -196.61501988573235,0 H 82.854953 v 16.44056 h -9.040815 q -9.269692,0 -12.359585,2.82841 -2.975477,2.82843 -2.975477,7.42474 0,4.2428 2.632111,14.1424 l 42.343073,158.39583 34.78993,-135.23729 q 3.54761,-13.61215 3.54761,-25.27967 0,-10.96042 -4.23434,-16.6174 -4.23421,-5.65697 -12.81726,-5.65697 h -7.66751 v -16.44056 h 65.46 v 16.44056 h -4.92097 q -6.29421,0 -11.32961,6.71765 -4.92097,6.71764 -9.49857,24.04217 L 99.105515,619.22995 H 85.37265 L 23.574751,388.17749 Q 20.484859,376.3332 16.479434,372.444 12.474021,368.55482 3.5476533,368.55482 H 4.4405399e-5 Z M 575.52157,251.73579 v 16.44056 h -64.43004 v -16.44056 h 6.75196 q 5.37872,0 8.01082,-4.24277 2.63212,-4.24279 2.63212,-12.37463 v -71.77297 q 0,-18.38519 -5.49321,-28.10814 -5.37872,-9.89972 -14.19063,-9.89972 -12.01625,0 -19.56932,13.96568 -7.5531,13.78891 -7.5531,40.48279 v 55.33239 q 0,8.13185 2.63213,12.37463 2.74659,4.24279 6.98083,4.24279 h 8.12531 V 268.1764 H 432.5853 v -16.44056 h 8.69746 q 5.03533,0 7.55307,-4.24279 2.6321,-4.24278 2.6321,-12.37463 v -98.46689 q 0,-8.48547 -3.77658,-13.43534 -3.66211,-5.12664 -9.72745,-5.12664 h -4.5776 v -15.37992 l 44.63183,-3.712395 q 2.40323,15.203145 3.66209,36.240055 9.38408,-19.62266 20.02709,-29.3456 10.64295,-9.722954 22.43037,-9.722954 16.02166,0 25.29136,16.440614 9.15519,16.4406 9.15519,45.78621 v 76.72286 q 0,8.83911 2.63212,12.72817 2.6321,3.88925 8.35419,3.88925 z M 322.95126,0 q 23.91807,0 44.05959,17.854858 20.25599,17.854857 31.47117,48.79149 11.32961,30.759853 11.32961,69.474842 0,58.86799 -24.94804,98.11332 -24.83359,39.24532 -61.68346,39.24532 -24.49027,0 -43.94517,-17.85486 -19.34045,-17.85485 -30.55563,-48.08435 -11.21516,-30.40629 -11.21516,-70.53553 0,-59.575116 24.60469,-98.290102 Q 286.67358,0 322.95126,0 Z m 0.68645,16.970955 q -13.61841,0 -23.6892,11.667532 -9.9563,11.490755 -15.90724,37.300741 -5.83646,25.80999 -5.83646,70.712302 0,47.20046 5.37872,71.59621 5.49309,24.21896 15.90723,35.88649 10.41407,11.66754 24.2614,11.66754 20.48486,0 32.73001,-27.04746 12.24527,-27.22425 12.24527,-94.40093 0,-47.023682 -5.26427,-70.535524 Q 358.1989,40.129233 347.7848,28.638484 337.37071,16.970955 323.63785,16.970955 Z m -134.92524,9.369381 7.89645,-25.98677297 h 8.46857 l 2.861,104.83099697 H 197.40996 Q 192.48901,59.928679 178.87059,38.007863 165.25216,16.087049 147.74276,16.087049 q -19.22602,0 -31.81448,28.284922 -12.58846,28.284923 -12.58846,89.274289 0,64.52498 13.84731,95.81517 11.10073,24.57252 32.73,24.57252 21.62927,0 36.3921,-24.57252 10.64293,-17.85485 14.87727,-52.68067 h 10.29968 q -3.66214,44.72554 -22.08706,70.71231 -18.42493,25.98676 -45.31847,25.98676 -34.78993,0 -58.364677,-37.83107 -23.460314,-38.00786 -23.460314,-97.22942 0,-65.762446 27.122416,-105.007774 Q 112.49507,0 143.50846,0 q 12.24513,0 22.65922,6.0105463 10.52856,5.8337657 22.54479,20.3297897 z" />
  </g>
</svg>
