<?xml version="1.0" encoding="UTF-8" standalone="no"?>
<svg
   xmlns:dc="http://purl.org/dc/elements/1.1/"
   xmlns:cc="http://creativecommons.org/ns#"
   xmlns:rdf="http://www.w3.org/1999/02/22-rdf-syntax-ns#"
   xmlns:svg="http://www.w3.org/2000/svg"
   xmlns="http://www.w3.org/2000/svg"
   xmlns:sodipodi="http://sodipodi.sourceforge.net/DTD/sodipodi-0.dtd"
   xmlns:inkscape="http://www.inkscape.org/namespaces/inkscape"
   width="100"
   height="100"
   viewBox="0 0 26.458336 26.458334"
   version="1.1"
   id="svg8"
   inkscape:version="1.0.1 (3bc2e813f5, 2020-09-07)"
   inkscape:export-filename="C:\Users\vince\Workspace\flutter_apps\convida\web\favicon.png"
   inkscape:export-xdpi="15.36"
   inkscape:export-ydpi="15.36"
   sodipodi:docname="logo.svg">
  <defs
     id="defs2">
    <rect
       x="0"
       y="0"
       width="14.552083"
       height="14.552083"
       id="rect837" />
  </defs>
  <sodipodi:namedview
     id="base"
     pagecolor="#ffffff"
     bordercolor="#666666"
     borderopacity="1.0"
     inkscape:pageopacity="0.0"
     inkscape:pageshadow="2"
     inkscape:zoom="4.0430788"
     inkscape:cx="220.80249"
     inkscape:cy="54.894391"
     inkscape:document-units="mm"
     inkscape:current-layer="layer1"
     inkscape:document-rotation="0"
     showgrid="false"
     units="px"
     inkscape:window-width="2560"
     inkscape:window-height="1506"
     inkscape:window-x="-11"
     inkscape:window-y="-11"
     inkscape:window-maximized="1">
    <inkscape:grid
       type="xygrid"
       id="grid833" />
  </sodipodi:namedview>
  <metadata
     id="metadata5">
    <rdf:RDF>
      <cc:Work
         rdf:about="">
        <dc:format>image/svg+xml</dc:format>
        <dc:type
           rdf:resource="http://purl.org/dc/dcmitype/StillImage" />
        <dc:title />
      </cc:Work>
    </rdf:RDF>
  </metadata>
  <g
     inkscape:label="Layer 1"
     inkscape:groupmode="layer"
     id="layer1">
    <path
       id="rect843"
       style="fill:#241c1c;fill-opacity:1;stroke:none;stroke-width:2.22222;stroke-linecap:square;stroke-linejoin:round;stroke-miterlimit:4;stroke-dasharray:none;stroke-opacity:1"
       d="M 3.8217592,0 H 22.636575 c 2.117254,0 3.821759,1.7045046 3.821759,3.8217592 V 22.636575 c 0,2.117254 -1.704505,3.821759 -3.821759,3.821759 H 3.8217592 C 1.7045046,26.458334 0,24.753829 0,22.636575 V 3.8217592 C 0,1.7045046 1.7045046,0 3.8217592,0 Z" />
    <g
       aria-label="COn
VIDa"
       transform="matrix(3.7723651,0,0,5.6985134,-14.119014,2.812011)"
       id="text835"
       style="font-style:normal;font-weight:normal;font-size:2.11667px;line-height:0.95;font-family:sans-serif;white-space:pre;shape-inside:url(#rect837);fill:#ffffff;fill-opacity:1;stroke:none">
      <path
         d="m 6.1549869,0.2082208 0.071314,-0.15192894 h 0.076481 L 6.32862,0.66917528 H 6.2335352 Q 6.1890934,0.40459154 6.0661033,0.27643379 5.9431132,0.14827604 5.7849831,0.14827604 q -0.1736331,0 -0.2873214,0.16536484 -0.1136883,0.16536484 -0.1136883,0.52193276 0,0.37723856 0.1250571,0.56017336 0.1002524,0.1436607 0.2955897,0.1436607 0.1953372,0 0.3286626,-0.1436607 0.096118,-0.1043865 0.1343589,-0.307992 h 0.093018 Q 6.3275864,1.3492382 6.1611881,1.5011671 5.9947897,1.653096 5.7519101,1.653096 5.4377169,1.653096 5.2248097,1.4319206 5.012936,1.2097116 5.012936,0.86347896 q 0,-0.38447324 0.2449467,-0.61391695 0.2087731,-0.19533722 0.4888598,-0.19533722 0.1105877,0 0.2046389,0.03514003 0.095085,0.0341065 0.2036055,0.11885598 z"
         style="font-style:normal;font-variant:normal;font-weight:bold;font-stretch:normal;font-family:'Century Schoolbook';-inkscape-font-specification:'Century Schoolbook Bold';text-align:center;text-anchor:middle;fill:#ffffff"
         id="path842" />
      <path
         d="m 7.3673179,0.05422479 q 0.2160078,0 0.3979091,0.10438656 0.1829349,0.10438655 0.2842208,0.28525434 0.1023195,0.17983426 0.1023195,0.40617738 0,0.34416553 -0.2253096,0.57360923 -0.224276,0.2294437 -0.5570728,0.2294437 -0.2211754,0 -0.3968756,-0.1043865 Q 6.7978427,1.4443229 6.6965568,1.2675893 6.5952708,1.0898221 6.5952708,0.85521072 q 0,-0.34829969 0.222209,-0.57464281 0.222209,-0.22634312 0.5498381,-0.22634312 z m 0.0062,0.09921891 q -0.1229901,0 -0.2139408,0.068213 -0.089917,0.0671795 -0.1436607,0.21807488 -0.05271,0.15089541 -0.05271,0.41341209 0,0.27595254 0.048576,0.41857974 0.049609,0.1415936 0.1436607,0.2098066 0.094051,0.068213 0.2191084,0.068213 0.1850019,0 0.2955896,-0.1581301 Q 7.78073,1.2324492 7.78073,0.83970776 7.78073,0.56478872 7.7331876,0.4273292 7.6856452,0.28883615 7.5915939,0.22165669 7.4975427,0.1534437 7.3735191,0.1534437 Z"
         style="font-style:normal;font-variant:normal;font-weight:bold;font-stretch:normal;font-family:'Century Schoolbook';-inkscape-font-specification:'Century Schoolbook Bold';text-align:center;text-anchor:middle;fill:#ffffff"
         id="path844" />
      <path
         d="m 9.6483191,1.5259718 v 0.096118 H 9.0664416 v -0.096118 h 0.060978 q 0.048576,0 0.072347,-0.024805 0.023771,-0.024805 0.023771,-0.072347 V 1.0092067 q 0,-0.10748712 -0.04961,-0.16433129 -0.048576,-0.0578777 -0.1281577,-0.0578777 -0.1085207,0 -0.1767337,0.0816489 -0.068213,0.0806154 -0.068213,0.23667839 V 1.42882 q 0,0.047542 0.023771,0.072347 0.024805,0.024805 0.063045,0.024805 h 0.073381 v 0.096118 H 8.3574398 v -0.096118 h 0.078548 q 0.045475,0 0.068213,-0.024805 0.023771,-0.024805 0.023771,-0.072347 V 0.85314366 q 0,-0.0496094 -0.034107,-0.0785483 -0.033073,-0.0299724 -0.08785,-0.0299724 h -0.041341 v -0.0899171 l 0.4030768,-0.0217041 q 0.021704,0.0888836 0.033073,0.21187369 0.084749,-0.11472185 0.1808678,-0.17156601 0.096118,-0.0568442 0.2025719,-0.0568442 0.1446942,0 0.2284102,0.0961183 0.082682,0.0961183 0.082682,0.26768432 V 1.42882 q 0,0.051677 0.023771,0.074414 0.023771,0.022738 0.075448,0.022738 z"
         style="font-style:normal;font-variant:normal;font-weight:bold;font-stretch:normal;font-family:'Century Schoolbook';-inkscape-font-specification:'Century Schoolbook Bold';text-align:center;text-anchor:middle;fill:#ffffff"
         id="path846" />
      <path
         d="m 4.4506956,2.1128237 h 0.7482758 v 0.096118 h -0.081649 q -0.083716,0 -0.1116213,0.016536 -0.026872,0.016536 -0.026872,0.043408 0,0.024805 0.023771,0.082682 L 5.3850069,3.2776123 5.6992001,2.4869617 q 0.032039,-0.079582 0.032039,-0.1477949 0,-0.064079 -0.038241,-0.097152 Q 5.6547583,2.208942 5.5772435,2.208942 H 5.507997 v -0.096118 h 0.5911793 v 0.096118 h -0.044442 q -0.056844,0 -0.1023195,0.039274 -0.044442,0.039274 -0.085783,0.1405601 L 5.3457327,3.6744879 H 5.2217091 L 4.6636028,2.3236639 Q 4.6356975,2.2544174 4.5995239,2.2316797 4.5633504,2.208942 4.482735,2.208942 h -0.032039 z"
         style="font-style:normal;font-variant:normal;font-weight:bold;font-stretch:normal;font-family:'Century Schoolbook';-inkscape-font-specification:'Century Schoolbook Bold';text-align:center;text-anchor:middle;fill:#ffffff"
         id="path848" />
      <path
         d="M 6.159121,2.1128237 H 6.9425369 V 2.208942 H 6.8009432 q -0.045475,0 -0.066146,0.018604 -0.020671,0.01757 -0.020671,0.05271 v 1.1833921 q 0,0.041341 0.021704,0.058911 0.027905,0.022738 0.080615,0.022738 h 0.1260907 v 0.096118 H 6.159121 v -0.096118 h 0.1198895 q 0.062012,0 0.086817,-0.020671 0.025838,-0.020671 0.025838,-0.060978 V 2.2936915 q 0,-0.043408 -0.023771,-0.064079 Q 6.3451564,2.208942 6.295547,2.208942 H 6.159121 Z"
         style="font-style:normal;font-variant:normal;font-weight:bold;font-stretch:normal;font-family:'Century Schoolbook';-inkscape-font-specification:'Century Schoolbook Bold';text-align:center;text-anchor:middle;fill:#ffffff"
         id="path850" />
      <path
         d="m 7.100667,2.1128237 h 0.8226901 q 0.224276,0 0.393775,0.095085 0.169499,0.095085 0.2656173,0.2707849 0.096118,0.1757002 0.096118,0.3958421 0,0.2284102 -0.08785,0.3979091 Q 8.5031675,3.4409101 8.3285009,3.5411625 8.1538343,3.6414149 7.9533295,3.6414149 H 7.100667 v -0.096118 h 0.1271242 q 0.046509,0 0.07028,-0.024805 0.023771,-0.025838 0.023771,-0.071314 V 2.2978256 q 0,-0.046509 -0.024805,-0.067179 Q 7.272233,2.208942 7.2133218,2.208942 H 7.100667 Z m 0.7513765,1.4324729 q 0.1415936,0 0.2511478,-0.071314 0.1095542,-0.071314 0.1581302,-0.1943037 0.048576,-0.1240236 0.048576,-0.3834397 0,-0.2728519 -0.057878,-0.4175462 -0.056844,-0.1457277 -0.1550295,-0.206706 -0.098185,-0.062012 -0.288355,-0.062012 -0.1043865,0 -0.1312583,0.01757 -0.025838,0.01757 -0.025838,0.064079 v 1.1565203 q 0,0.051676 0.020671,0.074414 0.021704,0.022738 0.068213,0.022738 z"
         style="font-style:normal;font-variant:normal;font-weight:bold;font-stretch:normal;font-family:'Century Schoolbook';-inkscape-font-specification:'Century Schoolbook Bold';text-align:center;text-anchor:middle;fill:#ffffff"
         id="path852" />
      <path
         d="m 9.9997192,3.5215254 0.043408,0.074414 q -0.063045,0.043408 -0.1136879,0.059945 -0.049609,0.016536 -0.1095542,0.016536 -0.088884,0 -0.1436607,-0.037207 -0.054777,-0.038241 -0.1002524,-0.1426271 -0.1054201,0.1043865 -0.189136,0.1426271 -0.083716,0.037207 -0.1891361,0.037207 -0.1457277,0 -0.2273766,-0.067179 -0.081649,-0.067179 -0.081649,-0.1705325 0,-0.1560631 0.1508954,-0.2501143 0.120923,-0.074414 0.530201,-0.1488284 V 2.8962396 q 0,-0.082682 -0.054777,-0.1343589 -0.054777,-0.05271 -0.1467613,-0.05271 -0.07028,0 -0.1240236,0.029972 -0.036174,0.019637 -0.036174,0.039274 0,0.010335 0.013436,0.031006 0.028939,0.046509 0.028939,0.091984 0,0.057878 -0.038241,0.094051 -0.038241,0.03514 -0.1023194,0.03514 -0.068213,0 -0.1095543,-0.038241 -0.041341,-0.039274 -0.041341,-0.1002524 0,-0.1002524 0.1085207,-0.1767337 0.1353925,-0.095085 0.3369309,-0.095085 0.1519289,0 0.2697514,0.047542 0.075448,0.029972 0.1219565,0.10542 0.047542,0.074414 0.047542,0.1839684 v 0.4909269 q 0,0.055811 0.020671,0.080615 0.020671,0.024805 0.056844,0.024805 0.029972,0 0.078548,-0.03204 z M 9.5697706,3.1256833 q -0.2211755,0.029972 -0.2997238,0.093018 -0.077515,0.062012 -0.077515,0.1643313 0,0.072347 0.036174,0.1116212 0.037207,0.038241 0.1033531,0.038241 0.1023194,0 0.1694989,-0.073381 0.068213,-0.073381 0.068213,-0.2005049 z"
         style="font-style:normal;font-variant:normal;font-weight:bold;font-stretch:normal;font-family:'Century Schoolbook';-inkscape-font-specification:'Century Schoolbook Bold';text-align:center;text-anchor:middle;fill:#ffffff"
         id="path854" />
    </g>
  </g>
</svg>
