<?xml version="1.0" encoding="UTF-8" standalone="no"?>
<svg
   xmlns:dc="http://purl.org/dc/elements/1.1/"
   xmlns:cc="http://creativecommons.org/ns#"
   xmlns:rdf="http://www.w3.org/1999/02/22-rdf-syntax-ns#"
   xmlns:svg="http://www.w3.org/2000/svg"
   xmlns="http://www.w3.org/2000/svg"
   xmlns:sodipodi="http://sodipodi.sourceforge.net/DTD/sodipodi-0.dtd"
   xmlns:inkscape="http://www.inkscape.org/namespaces/inkscape"
   width="191.03612mm"
   height="190.60648mm"
   viewBox="0 0 191.03612 190.60648"
   version="1.1"
   id="svg8"
   inkscape:version="1.0.1 (3bc2e813f5, 2020-09-07)"
   sodipodi:docname="logo.svg">
  <defs
     id="defs2">
    <rect
       x="47.625"
       y="42.333332"
       width="132.29167"
       height="52.916668"
       id="rect857" />
    <clipPath
       clipPathUnits="userSpaceOnUse"
       id="clipPath954">
      <path
         d="M 0,1598.823 H 800 V 0 H 0 Z"
         id="path952" />
    </clipPath>
    <clipPath
       clipPathUnits="userSpaceOnUse"
       id="clipPath962">
      <path
         d="m 143.337,880.493 h 200.02 V 671.899 h -200.02 z"
         id="path960" />
    </clipPath>
    <clipPath
       clipPathUnits="userSpaceOnUse"
       id="clipPath966">
      <path
         d="m 143.337,769.26 90.78,-97.36 109.241,102.966 -92.651,105.626 z"
         id="path964" />
    </clipPath>
    <linearGradient
       x1="0"
       y1="0"
       x2="1"
       y2="0"
       gradientUnits="userSpaceOnUse"
       gradientTransform="matrix(-95.771812,95.106735,95.106735,95.771812,290.332,728.60907)"
       spreadMethod="pad"
       id="linearGradient972">
      <stop
         style="stop-opacity:1;stop-color:#ffffff"
         offset="0"
         id="stop968" />
      <stop
         style="stop-opacity:1;stop-color:#231f20"
         offset="1"
         id="stop970" />
    </linearGradient>
    <clipPath
       clipPathUnits="userSpaceOnUse"
       id="clipPath994">
      <path
         d="M 340.582,880.493 H 540.603 V 671.899 H 340.582 Z"
         id="path992" />
    </clipPath>
    <clipPath
       clipPathUnits="userSpaceOnUse"
       id="clipPath998">
      <path
         d="m 340.582,769.26 90.781,-97.36 109.24,102.966 -92.651,105.626 z"
         id="path996" />
    </clipPath>
    <linearGradient
       x1="0"
       y1="0"
       x2="1"
       y2="0"
       gradientUnits="userSpaceOnUse"
       gradientTransform="matrix(-95.771812,95.106735,95.106735,95.771812,487.57733,728.60907)"
       spreadMethod="pad"
       id="linearGradient1004">
      <stop
         style="stop-opacity:1;stop-color:#ffffff"
         offset="0"
         id="stop1000" />
      <stop
         style="stop-opacity:1;stop-color:#231f20"
         offset="1"
         id="stop1002" />
    </linearGradient>
    <clipPath
       clipPathUnits="userSpaceOnUse"
       id="clipPath1026">
      <path
         d="M 529.687,880.493 H 729.708 V 671.899 H 529.687 Z"
         id="path1024" />
    </clipPath>
    <clipPath
       clipPathUnits="userSpaceOnUse"
       id="clipPath1030">
      <path
         d="m 529.688,769.26 90.78,-97.36 109.239,102.966 -92.649,105.626 z"
         id="path1028" />
    </clipPath>
    <linearGradient
       x1="0"
       y1="0"
       x2="1"
       y2="0"
       gradientUnits="userSpaceOnUse"
       gradientTransform="matrix(-95.771812,95.106735,95.106735,95.771812,676.68231,728.60907)"
       spreadMethod="pad"
       id="linearGradient1036">
      <stop
         style="stop-opacity:1;stop-color:#ffffff"
         offset="0"
         id="stop1032" />
      <stop
         style="stop-opacity:1;stop-color:#231f20"
         offset="1"
         id="stop1034" />
    </linearGradient>
    <clipPath
       clipPathUnits="userSpaceOnUse"
       id="clipPath1070">
      <path
         d="M 0,1598.823 H 800 V 0 H 0 Z"
         id="path1068" />
    </clipPath>
    <clipPath
       clipPathUnits="userSpaceOnUse"
       id="clipPath1234">
      <path
         d="M 0,1598.823 H 800 V 0 H 0 Z"
         id="path1232" />
    </clipPath>
    <clipPath
       clipPathUnits="userSpaceOnUse"
       id="clipPath1258">
      <path
         d="M 0,1598.823 H 800 V 0 H 0 Z"
         id="path1256" />
    </clipPath>
    <clipPath
       clipPathUnits="userSpaceOnUse"
       id="clipPath1294">
      <path
         d="M 0,1598.823 H 800 V 0 H 0 Z"
         id="path1292" />
    </clipPath>
    <clipPath
       clipPathUnits="userSpaceOnUse"
       id="clipPath1380">
      <path
         d="M 0,1598.823 H 800 V 0 H 0 Z"
         id="path1378" />
    </clipPath>
    <clipPath
       clipPathUnits="userSpaceOnUse"
       id="clipPath1070-1">
      <path
         d="M 0,1598.823 H 800 V 0 H 0 Z"
         id="path1068-1" />
    </clipPath>
  </defs>
  <sodipodi:namedview
     id="base"
     pagecolor="#ffffff"
     bordercolor="#666666"
     borderopacity="1.0"
     inkscape:pageopacity="0.0"
     inkscape:pageshadow="2"
     inkscape:zoom="0.33202009"
     inkscape:cx="-192.91504"
     inkscape:cy="1064.9199"
     inkscape:document-units="mm"
     inkscape:current-layer="layer1"
     inkscape:document-rotation="0"
     showgrid="false"
     fit-margin-top="0"
     fit-margin-left="0"
     fit-margin-right="0"
     fit-margin-bottom="0"
     inkscape:window-width="2538"
     inkscape:window-height="1542"
     inkscape:window-x="0"
     inkscape:window-y="0"
     inkscape:window-maximized="0">
    <inkscape:grid
       type="xygrid"
       id="grid847"
       originx="-447.61325"
       originy="163.19121" />
  </sodipodi:namedview>
  <metadata
     id="metadata5">
    <rdf:RDF>
      <cc:Work
         rdf:about="">
        <dc:format>image/svg+xml</dc:format>
        <dc:type
           rdf:resource="http://purl.org/dc/dcmitype/StillImage" />
        <dc:title />
      </cc:Work>
    </rdf:RDF>
  </metadata>
  <g
     inkscape:label="Layer 1"
     inkscape:groupmode="layer"
     id="layer1"
     transform="translate(-447.61322,163.19122)">
    <path
       style="fill:#029fd8;stroke:none;stroke-width:0.264583"
       d="m 484.57418,-162.92978 c -15.93665,2.11821 -29.63995,11.58746 -34.65274,27.40439 -3.36974,10.63201 -1.85976,22.85312 -1.85976,33.86666 v 61.383339 c 0,16.656843 -3.13743,36.4413271 7.18476,50.8 6.89055,9.58506 17.77709,15.835841 29.59232,16.645202 7.85919,0.538162 15.93321,0.02355 23.8125,0.02355 h 47.36042 30.95625 c 5.7531,0 11.76972,0.506148 17.4625,-0.376767 13.45168,-2.08624 25.64633,-10.89025 30.83639,-23.7003169 4.90617,-12.106804 3.03027,-26.3625541 3.03027,-39.1583331 v -71.966674 c 0,-14.15997 0.8943,-27.76458 -8.17536,-39.6875 -5.83432,-7.67003 -14.8664,-13.10438 -24.36838,-14.70152 -5.7621,-0.96851 -11.63903,-0.64431 -17.4625,-0.64431 h -69.32084 -22.48958 c -3.89599,0 -8.04333,-0.40115 -11.90625,0.11228 m 19.31458,32.91186 c 4.16772,-0.33099 11.39349,0.95144 14.13696,4.42463 1.18163,1.49595 1.93595,7.74329 0.0397,8.96276 -1.39726,0.89826 -3.52636,-1.23402 -4.65164,-1.87722 -3.04165,-1.73884 -6.53732,-2.72918 -10.05416,-2.27119 -13.38448,1.74361 -14.82434,22.664212 -8.45529,31.673542 3.39063,4.7961 10.27192,6.05314 15.59904,4.11798 1.62216,-0.58923 6.49975,-4.23572 8.00682,-3.05197 0.83502,0.6559 0.71966,2.49237 0.72416,3.43191 0.0209,4.39526 -1.63168,6.504256 -5.82057,7.936706 -3.52557,1.20544 -6.87916,1.5883 -10.58333,1.5883 -6.13066,0 -12.23195,-1.8288 -16.55551,-6.394986 -9.77159,-10.31955 -8.63071,-31.614802 0.72575,-41.755222 4.41537,-4.78552 10.67356,-6.29179 16.88809,-6.78524 m 43.65625,2.35902 c 13.66414,-1.61316 25.54764,11.06197 26.43479,24.00142 0.93504,13.641122 -8.82147,26.609948 -22.73062,28.000598 -19.32596,1.93251 -32.52338,-18.975136 -25.54473,-36.202688 3.77984,-9.33106 12.15073,-14.65553 21.84056,-15.79933 m 9.79064,15.444 c -3.51869,1.07024 -2.04522,6.74608 1.58618,5.7957 3.59966,-0.94166 2.04285,-6.89954 -1.58618,-5.7957 m -18.52162,0.24236 c -3.74147,0.8882 -2.4519,6.64871 1.32239,5.8285 3.79862,-0.8255 2.48708,-6.73311 -1.32239,-5.8285 m 48.68307,12.548392 c 4.63047,-4.534432 13.5763,-7.223122 17.11139,0.26458 1.83118,3.87932 1.14486,8.80243 1.14486,12.96459 v 7.14376 c 0,0.844016 0.20663,2.086496 -0.42413,2.761186 -1.14803,1.2274 -6.12563,1.2065 -6.63549,-0.65987 -1.29884,-4.754046 0.36433,-10.678856 -0.12938,-15.595076 -0.23706,-2.36379 -1.49463,-4.92337 -4.18809,-4.99084 -7.77637,-0.195 -5.82083,11.6332 -5.82083,16.36792 0,1.28693 0.54213,4.166926 -0.61331,5.043496 -1.20729,0.91599 -5.67689,1.0279 -6.3709,-0.58367 -0.76385,-1.7743 -0.15954,-4.920996 -0.15954,-6.841076 v -12.43542 c 0,-1.86425 -0.40455,-4.267992 0.0841,-6.070862 0.45587,-1.68143 4.44473,-1.91347 5.57715,-0.84587 0.76623,0.72257 0.42413,2.52068 0.42413,3.477152 m -51.32917,2.91042 c 1.22158,15.34715 24.46364,15.60592 25.13542,0 -1.66661,1.17395 -2.96598,2.71224 -4.7625,3.73777 -4.63788,2.64768 -10.34786,2.76727 -15.08125,0.28786 -2.01904,-1.05754 -3.46022,-2.73579 -5.29167,-4.02563 m -44.97917,81.020775 c 1.99655,-6.243902 3.88224,-12.52564 5.82745,-18.785417 1.26048,-4.055533 2.47333,-8.131969 3.78487,-12.170833 0.85566,-2.634721 1.61554,-5.302779 2.4712,-7.9375 0.34873,-1.074209 0.55325,-2.537619 1.47056,-3.290359 1.45203,-1.19168 9.07812,-1.53617 9.64406,0.65908 0.78528,3.045616 -2.38098,8.706641 -3.35439,11.627112 -3.29618,9.888538 -6.67041,19.746648 -9.96606,29.633333 -1.14088,3.42265 -1.90976,10.6029131 -6.17352,11.0664631 -2.6289,0.286014 -8.9408,1.015735 -11.00825,-0.88265 -2.35321,-2.160323 -3.16177,-8.2436231 -4.16111,-11.2421461 l -9.3927,-28.045833 c -0.94483,-2.825486 -1.95766,-5.628217 -2.86359,-8.466667 -0.32755,-1.026319 -1.02632,-2.61276 -0.66437,-3.688822 0.3093,-0.91969 1.29514,-1.19327 2.16085,-1.29223 2.04179,-0.23283 6.73947,-0.76676 8.39312,0.63236 2.30743,1.951832 2.92867,8.140965 3.86582,10.963275 1.25466,3.777457 2.35771,7.601215 3.61606,11.377084 2.16932,6.509543 3.57029,13.572596 6.35,19.84375 m 33.07292,-42.786039 c 1.89045,-0.24924 6.31878,-0.72654 7.71049,0.8898 1.56236,1.814774 0.49159,7.822403 0.49159,10.146239 v 28.575 c 0,3.694906 1.8796,13.3143621 -2.91041,13.9464521 -1.94787,0.25691 -6.40133,0.741098 -7.74118,-1.042194 -1.55152,-2.065337 -0.46091,-7.9920041 -0.46091,-10.5230081 v -28.045834 c 0,-3.694906 -1.8796,-13.314365 2.91042,-13.946455 m 35.98333,0.11139 c 6.90854,0.0918 14.30364,0.83794 19.84375,5.454653 10.41771,8.681508 11.34163,29.775944 2.33522,39.865829 -8.4762,9.4961601 -23.51855,8.5113811 -35.14355,7.9269171 -2.99032,-0.150284 -3.40836,-2.471209 -3.43853,-5.0165 -0.0651,-5.4662921 -10e-4,-10.9373461 -10e-4,-16.4041671 v -22.754167 c 0,-2.198687 -0.77629,-6.703748 1.11865,-8.293895 1.17978,-0.98981 3.01149,-0.70194 4.4376,-0.70194 3.61182,0 7.24058,-0.12488 10.84791,-0.0767 m -5.55625,8.543399 v 26.458333 6.614583 c 0,0.769938 -0.2413,2.102909 0.27199,2.750873 0.71914,0.90805 3.44885,0.424127 4.49051,0.424127 4.81859,0 10.03485,-0.717285 13.44507,-4.501885 6.46827,-7.17841 5.94466,-23.680208 -2.33257,-29.269531 -4.65957,-3.14669 -10.53518,-2.4765 -15.875,-2.4765 m 67.99792,45.7729161 c -2.2188,-1.037166 -4.25159,-2.497931 -6.35,-3.757083 -0.77126,-0.462756 -1.86082,-1.424252 -2.79823,-1.429544 -1.38483,-0.0077 -3.17712,1.248569 -4.6101,1.533261 -4.25001,0.844814 -8.89794,-0.3302 -12.14729,-3.2056921 -1.41499,-1.252273 -2.6961,-2.791619 -3.48932,-4.518025 -5.987,-13.029406 10.25392,-25.105519 21.45744,-16.771937 4.37938,3.257285 5.49828,6.781364 5.43598,11.808062 -0.0192,1.552676 0.10759,6.026827 0.14913,7.490502 0.0847,2.9805311 1.49911,5.9495651 2.35239,8.8504561 z"
       id="path2440"
       sodipodi:nodetypes="ccssscscsscssssscsccscccsssscscsccccscccccscccsscsccsscsssscccsscccsssscsccccsscccsccsssscssccscscsssscccsssscccsscsccssc" />
    <path
       style="fill:#029fd8;stroke:none;stroke-width:0.264583"
       d="m 484.57418,-162.92978 c -15.93665,2.11821 -29.63995,11.58746 -34.65274,27.40439 -3.36974,10.63201 -1.85976,22.85312 -1.85976,33.86666 v 61.383339 c 0,16.656843 -3.13743,36.4413271 7.18476,50.8 6.89055,9.58506 17.77709,15.835841 29.59232,16.645202 7.85919,0.538162 15.93321,0.02355 23.8125,0.02355 h 47.36042 30.95625 c 5.7531,0 11.76972,0.506148 17.4625,-0.376767 13.45168,-2.08624 25.64633,-10.89025 30.83639,-23.7003169 4.90617,-12.106804 3.03027,-26.3625541 3.03027,-39.1583331 v -71.966674 c 0,-14.15997 0.8943,-27.76458 -8.17536,-39.6875 -5.83432,-7.67003 -14.8664,-13.10438 -24.36838,-14.70152 -5.7621,-0.96851 -11.63903,-0.64431 -17.4625,-0.64431 h -69.32084 -22.48958 c -3.89599,0 -8.04333,-0.40115 -11.90625,0.11228 m 19.31458,32.91186 c 4.16772,-0.33099 11.39349,0.95144 14.13696,4.42463 1.18163,1.49595 1.93595,7.74329 0.0397,8.96276 -1.39726,0.89826 -3.52636,-1.23402 -4.65164,-1.87722 -3.04165,-1.73884 -6.53732,-2.72918 -10.05416,-2.27119 -13.38448,1.74361 -14.82434,22.664212 -8.45529,31.673542 3.39063,4.7961 10.27192,6.05314 15.59904,4.11798 1.62216,-0.58923 6.49975,-4.23572 8.00682,-3.05197 0.83502,0.6559 0.71966,2.49237 0.72416,3.43191 0.0209,4.39526 -1.63168,6.504256 -5.82057,7.936706 -3.52557,1.20544 -6.87916,1.5883 -10.58333,1.5883 -6.13066,0 -12.23195,-1.8288 -16.55551,-6.394986 -9.77159,-10.31955 -8.63071,-31.614802 0.72575,-41.755222 4.41537,-4.78552 10.67356,-6.29179 16.88809,-6.78524 m 43.65625,2.35902 c 13.66414,-1.61316 25.54764,11.06197 26.43479,24.00142 0.93504,13.641122 -8.82147,26.609948 -22.73062,28.000598 -19.32596,1.93251 -32.52338,-18.975136 -25.54473,-36.202688 3.77984,-9.33106 12.15073,-14.65553 21.84056,-15.79933 m 9.79064,15.444 c -3.51869,1.07024 -2.04522,6.74608 1.58618,5.7957 3.59966,-0.94166 2.04285,-6.89954 -1.58618,-5.7957 m -18.52162,0.24236 c -3.74147,0.8882 -2.4519,6.64871 1.32239,5.8285 3.79862,-0.8255 2.48708,-6.73311 -1.32239,-5.8285 m 48.68307,12.548392 c 4.63047,-4.534432 13.5763,-7.223122 17.11139,0.26458 1.83118,3.87932 1.14486,8.80243 1.14486,12.96459 v 7.14376 c 0,0.844016 0.20663,2.086496 -0.42413,2.761186 -1.14803,1.2274 -6.12563,1.2065 -6.63549,-0.65987 -1.29884,-4.754046 0.36433,-10.678856 -0.12938,-15.595076 -0.23706,-2.36379 -1.49463,-4.92337 -4.18809,-4.99084 -7.77637,-0.195 -5.82083,11.6332 -5.82083,16.36792 0,1.28693 0.54213,4.166926 -0.61331,5.043496 -1.20729,0.91599 -5.67689,1.0279 -6.3709,-0.58367 -0.76385,-1.7743 -0.15954,-4.920996 -0.15954,-6.841076 v -12.43542 c 0,-1.86425 -0.40455,-4.267992 0.0841,-6.070862 0.45587,-1.68143 4.44473,-1.91347 5.57715,-0.84587 0.76623,0.72257 0.42413,2.52068 0.42413,3.477152 m -51.32917,2.91042 c 1.22158,15.34715 24.46364,15.60592 25.13542,0 -1.66661,1.17395 -2.96598,2.71224 -4.7625,3.73777 -4.63788,2.64768 -10.34786,2.76727 -15.08125,0.28786 -2.01904,-1.05754 -3.46022,-2.73579 -5.29167,-4.02563 m -44.97917,81.020775 c 1.99655,-6.243902 3.88224,-12.52564 5.82745,-18.785417 1.26048,-4.055533 2.47333,-8.131969 3.78487,-12.170833 0.85566,-2.634721 1.61554,-5.302779 2.4712,-7.9375 0.34873,-1.074209 0.55325,-2.537619 1.47056,-3.290359 1.45203,-1.19168 9.07812,-1.53617 9.64406,0.65908 0.78528,3.045616 -2.38098,8.706641 -3.35439,11.627112 -3.29618,9.888538 -6.67041,19.746648 -9.96606,29.633333 -1.14088,3.42265 -1.90976,10.6029131 -6.17352,11.0664631 -2.6289,0.286014 -8.9408,1.015735 -11.00825,-0.88265 -2.35321,-2.160323 -3.16177,-8.2436231 -4.16111,-11.2421461 l -9.3927,-28.045833 c -0.94483,-2.825486 -1.95766,-5.628217 -2.86359,-8.466667 -0.32755,-1.026319 -1.02632,-2.61276 -0.66437,-3.688822 0.3093,-0.91969 1.29514,-1.19327 2.16085,-1.29223 2.04179,-0.23283 6.73947,-0.76676 8.39312,0.63236 2.30743,1.951832 2.92867,8.140965 3.86582,10.963275 1.25466,3.777457 2.35771,7.601215 3.61606,11.377084 2.16932,6.509543 3.57029,13.572596 6.35,19.84375 m 33.07292,-42.786039 c 1.89045,-0.24924 6.31878,-0.72654 7.71049,0.8898 1.56236,1.814774 0.49159,7.822403 0.49159,10.146239 v 28.575 c 0,3.694906 1.8796,13.3143621 -2.91041,13.9464521 -1.94787,0.25691 -6.40133,0.741098 -7.74118,-1.042194 -1.55152,-2.065337 -0.46091,-7.9920041 -0.46091,-10.5230081 v -28.045834 c 0,-3.694906 -1.8796,-13.314365 2.91042,-13.946455 m 35.98333,0.11139 c 6.90854,0.0918 14.30364,0.83794 19.84375,5.454653 10.41771,8.681508 11.34163,29.775944 2.33522,39.865829 -8.4762,9.4961601 -23.51855,8.5113811 -35.14355,7.9269171 -2.99032,-0.150284 -3.40836,-2.471209 -3.43853,-5.0165 -0.0651,-5.4662921 -10e-4,-10.9373461 -10e-4,-16.4041671 v -22.754167 c 0,-2.198687 -0.77629,-6.703748 1.11865,-8.293895 1.17978,-0.98981 3.01149,-0.70194 4.4376,-0.70194 3.61182,0 7.24058,-0.12488 10.84791,-0.0767 m -5.55625,8.543399 v 26.458333 6.614583 c 0,0.769938 -0.2413,2.102909 0.27199,2.750873 0.71914,0.90805 3.44885,0.424127 4.49051,0.424127 4.81859,0 10.03485,-0.717285 13.44507,-4.501885 6.46827,-7.17841 5.94466,-23.680208 -2.33257,-29.269531 -4.65957,-3.14669 -10.53518,-2.4765 -15.875,-2.4765 m 67.99792,45.7729161 c -2.2188,-1.037166 -4.25159,-2.497931 -6.35,-3.757083 -0.77126,-0.462756 -1.86082,-1.424252 -2.79823,-1.429544 -1.38483,-0.0077 -3.17712,1.248569 -4.6101,1.533261 -4.25001,0.844814 -8.89794,-0.3302 -12.14729,-3.2056921 -1.41499,-1.252273 -2.6961,-2.791619 -3.48932,-4.518025 -5.987,-13.029406 10.25392,-25.105519 21.45744,-16.771937 4.37938,3.257285 5.49828,6.781364 5.43598,11.808062 -0.0192,1.552676 0.10759,6.026827 0.14913,7.490502 0.0847,2.9805311 1.49911,5.9495651 2.35239,8.8504561 z"
       id="path2442"
       sodipodi:nodetypes="ccssscscsscssssscsccscccsssscscsccccscccccscccsscsccsscsssscccsscccsssscsccccsscccsccsssscssccscscsssscccsssscccsscsccssc" />
    <path
       style="fill:#029fd8;stroke:none;stroke-width:0.264583"
       d="m 484.57418,-162.92978 c -15.93665,2.11821 -29.63995,11.58746 -34.65274,27.40439 -3.36974,10.63201 -1.85976,22.85312 -1.85976,33.86666 v 61.383339 c 0,16.656843 -3.13743,36.4413271 7.18476,50.8 6.89055,9.58506 17.77709,15.835841 29.59232,16.645202 7.85919,0.538162 15.93321,0.02355 23.8125,0.02355 h 47.36042 30.95625 c 5.7531,0 11.76972,0.506148 17.4625,-0.376767 13.45168,-2.08624 25.64633,-10.89025 30.83639,-23.7003169 4.90617,-12.106804 3.03027,-26.3625541 3.03027,-39.1583331 v -71.966674 c 0,-14.15997 0.8943,-27.76458 -8.17536,-39.6875 -5.83432,-7.67003 -14.8664,-13.10438 -24.36838,-14.70152 -5.7621,-0.96851 -11.63903,-0.64431 -17.4625,-0.64431 h -69.32084 -22.48958 c -3.89599,0 -8.04333,-0.40115 -11.90625,0.11228 m 19.31458,32.91186 c 4.16772,-0.33099 11.39349,0.95144 14.13696,4.42463 1.18163,1.49595 1.93595,7.74329 0.0397,8.96276 -1.39726,0.89826 -3.52636,-1.23402 -4.65164,-1.87722 -3.04165,-1.73884 -6.53732,-2.72918 -10.05416,-2.27119 -13.38448,1.74361 -14.82434,22.664212 -8.45529,31.673542 3.39063,4.7961 10.27192,6.05314 15.59904,4.11798 1.62216,-0.58923 6.49975,-4.23572 8.00682,-3.05197 0.83502,0.6559 0.71966,2.49237 0.72416,3.43191 0.0209,4.39526 -1.63168,6.504256 -5.82057,7.936706 -3.52557,1.20544 -6.87916,1.5883 -10.58333,1.5883 -6.13066,0 -12.23195,-1.8288 -16.55551,-6.394986 -9.77159,-10.31955 -8.63071,-31.614802 0.72575,-41.755222 4.41537,-4.78552 10.67356,-6.29179 16.88809,-6.78524 m 43.65625,2.35902 c 13.66414,-1.61316 25.54764,11.06197 26.43479,24.00142 0.93504,13.641122 -8.82147,26.609948 -22.73062,28.000598 -19.32596,1.93251 -32.52338,-18.975136 -25.54473,-36.202688 3.77984,-9.33106 12.15073,-14.65553 21.84056,-15.79933 m 9.79064,15.444 c -3.51869,1.07024 -2.04522,6.74608 1.58618,5.7957 3.59966,-0.94166 2.04285,-6.89954 -1.58618,-5.7957 m -18.52162,0.24236 c -3.74147,0.8882 -2.4519,6.64871 1.32239,5.8285 3.79862,-0.8255 2.48708,-6.73311 -1.32239,-5.8285 m 48.68307,12.548392 c 4.63047,-4.534432 13.5763,-7.223122 17.11139,0.26458 1.83118,3.87932 1.14486,8.80243 1.14486,12.96459 v 7.14376 c 0,0.844016 0.20663,2.086496 -0.42413,2.761186 -1.14803,1.2274 -6.12563,1.2065 -6.63549,-0.65987 -1.29884,-4.754046 0.36433,-10.678856 -0.12938,-15.595076 -0.23706,-2.36379 -1.49463,-4.92337 -4.18809,-4.99084 -7.77637,-0.195 -5.82083,11.6332 -5.82083,16.36792 0,1.28693 0.54213,4.166926 -0.61331,5.043496 -1.20729,0.91599 -5.67689,1.0279 -6.3709,-0.58367 -0.76385,-1.7743 -0.15954,-4.920996 -0.15954,-6.841076 v -12.43542 c 0,-1.86425 -0.40455,-4.267992 0.0841,-6.070862 0.45587,-1.68143 4.44473,-1.91347 5.57715,-0.84587 0.76623,0.72257 0.42413,2.52068 0.42413,3.477152 m -51.32917,2.91042 c 1.22158,15.34715 24.46364,15.60592 25.13542,0 -1.66661,1.17395 -2.96598,2.71224 -4.7625,3.73777 -4.63788,2.64768 -10.34786,2.76727 -15.08125,0.28786 -2.01904,-1.05754 -3.46022,-2.73579 -5.29167,-4.02563 m -44.97917,81.020775 c 1.99655,-6.243902 3.88224,-12.52564 5.82745,-18.785417 1.26048,-4.055533 2.47333,-8.131969 3.78487,-12.170833 0.85566,-2.634721 1.61554,-5.302779 2.4712,-7.9375 0.34873,-1.074209 0.55325,-2.537619 1.47056,-3.290359 1.45203,-1.19168 9.07812,-1.53617 9.64406,0.65908 0.78528,3.045616 -2.38098,8.706641 -3.35439,11.627112 -3.29618,9.888538 -6.67041,19.746648 -9.96606,29.633333 -1.14088,3.42265 -1.90976,10.6029131 -6.17352,11.0664631 -2.6289,0.286014 -8.9408,1.015735 -11.00825,-0.88265 -2.35321,-2.160323 -3.16177,-8.2436231 -4.16111,-11.2421461 l -9.3927,-28.045833 c -0.94483,-2.825486 -1.95766,-5.628217 -2.86359,-8.466667 -0.32755,-1.026319 -1.02632,-2.61276 -0.66437,-3.688822 0.3093,-0.91969 1.29514,-1.19327 2.16085,-1.29223 2.04179,-0.23283 6.73947,-0.76676 8.39312,0.63236 2.30743,1.951832 2.92867,8.140965 3.86582,10.963275 1.25466,3.777457 2.35771,7.601215 3.61606,11.377084 2.16932,6.509543 3.57029,13.572596 6.35,19.84375 m 33.07292,-42.786039 c 1.89045,-0.24924 6.31878,-0.72654 7.71049,0.8898 1.56236,1.814774 0.49159,7.822403 0.49159,10.146239 v 28.575 c 0,3.694906 1.8796,13.3143621 -2.91041,13.9464521 -1.94787,0.25691 -6.40133,0.741098 -7.74118,-1.042194 -1.55152,-2.065337 -0.46091,-7.9920041 -0.46091,-10.5230081 v -28.045834 c 0,-3.694906 -1.8796,-13.314365 2.91042,-13.946455 m 35.98333,0.11139 c 6.90854,0.0918 14.30364,0.83794 19.84375,5.454653 10.41771,8.681508 11.34163,29.775944 2.33522,39.865829 -8.4762,9.4961601 -23.51855,8.5113811 -35.14355,7.9269171 -2.99032,-0.150284 -3.40836,-2.471209 -3.43853,-5.0165 -0.0651,-5.4662921 -10e-4,-10.9373461 -10e-4,-16.4041671 v -22.754167 c 0,-2.198687 -0.77629,-6.703748 1.11865,-8.293895 1.17978,-0.98981 3.01149,-0.70194 4.4376,-0.70194 3.61182,0 7.24058,-0.12488 10.84791,-0.0767 m -5.55625,8.543399 v 26.458333 6.614583 c 0,0.769938 -0.2413,2.102909 0.27199,2.750873 0.71914,0.90805 3.44885,0.424127 4.49051,0.424127 4.81859,0 10.03485,-0.717285 13.44507,-4.501885 6.46827,-7.17841 5.94466,-23.680208 -2.33257,-29.269531 -4.65957,-3.14669 -10.53518,-2.4765 -15.875,-2.4765 m 67.99792,45.7729161 c -2.2188,-1.037166 -4.25159,-2.497931 -6.35,-3.757083 -0.77126,-0.462756 -1.86082,-1.424252 -2.79823,-1.429544 -1.38483,-0.0077 -3.17712,1.248569 -4.6101,1.533261 -4.25001,0.844814 -8.89794,-0.3302 -12.14729,-3.2056921 -1.41499,-1.252273 -2.6961,-2.791619 -3.48932,-4.518025 -5.987,-13.029406 10.25392,-25.105519 21.45744,-16.771937 4.37938,3.257285 5.49828,6.781364 5.43598,11.808062 -0.0192,1.552676 0.10759,6.026827 0.14913,7.490502 0.0847,2.9805311 1.49911,5.9495651 2.35239,8.8504561 z"
       id="path2444"
       sodipodi:nodetypes="ccssscscsscssssscsccscccsssscscsccccscccccscccsscsccsscsssscccsscccsssscsccccsscccsccsssscssccscscsssscccsssscccsscsccssc" />
    <rect
       style="font-variation-settings:'wdth' 100, 'wght' 400;opacity:0.983133;fill:#ffffff;stroke-width:0.1;stroke-linecap:square;stroke-linejoin:round;fill-opacity:1"
       id="rect872"
       width="173.47975"
       height="165.71507"
       x="457.17587"
       y="-151.23787"
       ry="35.161987" />
    <path
       style="fill:#029fd8;stroke:none;stroke-width:0.264583"
       d="m 484.57418,-162.92978 c -15.93665,2.11821 -29.63995,11.58746 -34.65274,27.40439 -3.36974,10.63201 -1.85976,22.85312 -1.85976,33.86666 v 61.383339 c 0,16.656843 -3.13743,36.4413271 7.18476,50.8 6.89055,9.58506 17.77709,15.835841 29.59232,16.645202 7.85919,0.538162 15.93321,0.02355 23.8125,0.02355 h 47.36042 30.95625 c 5.7531,0 11.76972,0.506148 17.4625,-0.376767 13.45168,-2.08624 25.64633,-10.89025 30.83639,-23.7003169 4.90617,-12.106804 3.03027,-26.3625541 3.03027,-39.1583331 v -71.966674 c 0,-14.15997 0.8943,-27.76458 -8.17536,-39.6875 -5.83432,-7.67003 -14.8664,-13.10438 -24.36838,-14.70152 -5.7621,-0.96851 -11.63903,-0.64431 -17.4625,-0.64431 h -69.32084 -22.48958 c -3.89599,0 -8.04333,-0.40115 -11.90625,0.11228 m 19.31458,32.91186 c 4.16772,-0.33099 11.39349,0.95144 14.13696,4.42463 1.18163,1.49595 1.93595,7.74329 0.0397,8.96276 -1.39726,0.89826 -3.52636,-1.23402 -4.65164,-1.87722 -3.04165,-1.73884 -6.53732,-2.72918 -10.05416,-2.27119 -13.38448,1.74361 -14.82434,22.664212 -8.45529,31.673542 3.39063,4.7961 10.27192,6.05314 15.59904,4.11798 1.62216,-0.58923 6.49975,-4.23572 8.00682,-3.05197 0.83502,0.6559 0.71966,2.49237 0.72416,3.43191 0.0209,4.39526 -1.63168,6.504256 -5.82057,7.936706 -3.52557,1.20544 -6.87916,1.5883 -10.58333,1.5883 -6.13066,0 -12.23195,-1.8288 -16.55551,-6.394986 -9.77159,-10.31955 -8.63071,-31.614802 0.72575,-41.755222 4.41537,-4.78552 10.67356,-6.29179 16.88809,-6.78524 m 43.65625,2.35902 c 13.66414,-1.61316 25.54764,11.06197 26.43479,24.00142 0.93504,13.641122 -8.82147,26.609948 -22.73062,28.000598 -19.32596,1.93251 -32.52338,-18.975136 -25.54473,-36.202688 3.77984,-9.33106 12.15073,-14.65553 21.84056,-15.79933 m 9.79064,15.444 c -3.51869,1.07024 -2.04522,6.74608 1.58618,5.7957 3.59966,-0.94166 2.04285,-6.89954 -1.58618,-5.7957 m -18.52162,0.24236 c -3.74147,0.8882 -2.4519,6.64871 1.32239,5.8285 3.79862,-0.8255 2.48708,-6.73311 -1.32239,-5.8285 m 48.68307,12.548392 c 4.63047,-4.534432 13.5763,-7.223122 17.11139,0.26458 1.83118,3.87932 1.14486,8.80243 1.14486,12.96459 v 7.14376 c 0,0.844016 0.20663,2.086496 -0.42413,2.761186 -1.14803,1.2274 -6.12563,1.2065 -6.63549,-0.65987 -1.29884,-4.754046 0.36433,-10.678856 -0.12938,-15.595076 -0.23706,-2.36379 -1.49463,-4.92337 -4.18809,-4.99084 -7.77637,-0.195 -5.82083,11.6332 -5.82083,16.36792 0,1.28693 0.54213,4.166926 -0.61331,5.043496 -1.20729,0.91599 -5.67689,1.0279 -6.3709,-0.58367 -0.76385,-1.7743 -0.15954,-4.920996 -0.15954,-6.841076 v -12.43542 c 0,-1.86425 -0.40455,-4.267992 0.0841,-6.070862 0.45587,-1.68143 4.44473,-1.91347 5.57715,-0.84587 0.76623,0.72257 0.42413,2.52068 0.42413,3.477152 m -51.32917,2.91042 c 1.22158,15.34715 24.46364,15.60592 25.13542,0 -1.66661,1.17395 -2.96598,2.71224 -4.7625,3.73777 -4.63788,2.64768 -10.34786,2.76727 -15.08125,0.28786 -2.01904,-1.05754 -3.46022,-2.73579 -5.29167,-4.02563 m -44.97917,81.020775 c 1.99655,-6.243902 3.88224,-12.52564 5.82745,-18.785417 1.26048,-4.055533 2.47333,-8.131969 3.78487,-12.170833 0.85566,-2.634721 1.61554,-5.302779 2.4712,-7.9375 0.34873,-1.074209 0.55325,-2.537619 1.47056,-3.290359 1.45203,-1.19168 9.07812,-1.53617 9.64406,0.65908 0.78528,3.045616 -2.38098,8.706641 -3.35439,11.627112 -3.29618,9.888538 -6.67041,19.746648 -9.96606,29.633333 -1.14088,3.42265 -1.90976,10.6029131 -6.17352,11.0664631 -2.6289,0.286014 -8.9408,1.015735 -11.00825,-0.88265 -2.35321,-2.160323 -3.16177,-8.2436231 -4.16111,-11.2421461 l -9.3927,-28.045833 c -0.94483,-2.825486 -1.95766,-5.628217 -2.86359,-8.466667 -0.32755,-1.026319 -1.02632,-2.61276 -0.66437,-3.688822 0.3093,-0.91969 1.29514,-1.19327 2.16085,-1.29223 2.04179,-0.23283 6.73947,-0.76676 8.39312,0.63236 2.30743,1.951832 2.92867,8.140965 3.86582,10.963275 1.25466,3.777457 2.35771,7.601215 3.61606,11.377084 2.16932,6.509543 3.57029,13.572596 6.35,19.84375 m 33.07292,-42.786039 c 1.89045,-0.24924 6.31878,-0.72654 7.71049,0.8898 1.56236,1.814774 0.49159,7.822403 0.49159,10.146239 v 28.575 c 0,3.694906 1.8796,13.3143621 -2.91041,13.9464521 -1.94787,0.25691 -6.40133,0.741098 -7.74118,-1.042194 -1.55152,-2.065337 -0.46091,-7.9920041 -0.46091,-10.5230081 v -28.045834 c 0,-3.694906 -1.8796,-13.314365 2.91042,-13.946455 m 35.98333,0.11139 c 6.90854,0.0918 14.30364,0.83794 19.84375,5.454653 10.41771,8.681508 11.34163,29.775944 2.33522,39.865829 -8.4762,9.4961601 -23.51855,8.5113811 -35.14355,7.9269171 -2.99032,-0.150284 -3.40836,-2.471209 -3.43853,-5.0165 -0.0651,-5.4662921 -10e-4,-10.9373461 -10e-4,-16.4041671 v -22.754167 c 0,-2.198687 -0.77629,-6.703748 1.11865,-8.293895 1.17978,-0.98981 3.01149,-0.70194 4.4376,-0.70194 3.61182,0 7.24058,-0.12488 10.84791,-0.0767 m -5.55625,8.543399 v 26.458333 6.614583 c 0,0.769938 -0.2413,2.102909 0.27199,2.750873 0.71914,0.90805 3.44885,0.424127 4.49051,0.424127 4.81859,0 10.03485,-0.717285 13.44507,-4.501885 6.46827,-7.17841 5.94466,-23.680208 -2.33257,-29.269531 -4.65957,-3.14669 -10.53518,-2.4765 -15.875,-2.4765 m 67.99792,45.7729161 c -2.2188,-1.037166 -4.25159,-2.497931 -6.35,-3.757083 -0.77126,-0.462756 -1.86082,-1.424252 -2.79823,-1.429544 -1.38483,-0.0077 -3.17712,1.248569 -4.6101,1.533261 -4.25001,0.844814 -8.89794,-0.3302 -12.14729,-3.2056921 -1.41499,-1.252273 -2.6961,-2.791619 -3.48932,-4.518025 -5.987,-13.029406 10.25392,-25.105519 21.45744,-16.771937 4.37938,3.257285 5.49828,6.781364 5.43598,11.808062 -0.0192,1.552676 0.10759,6.026827 0.14913,7.490502 0.0847,2.9805311 1.49911,5.9495651 2.35239,8.8504561 z"
       id="path2446"
       sodipodi:nodetypes="ccssscscsscssssscsccscccsssscscsccccscccccscccsscsccsscsssscccsscccsssscsccccsscccsccsssscssccscscsssscccsssscccsscsccssc" />
    <path
       style="fill:#029fd8;stroke:none;stroke-width:0.263445"
       d="m 484.37372,-162.93061 c -15.85022,2.11147 -29.4792,11.55059 -34.4648,27.31719 -3.35146,10.59818 -1.84967,22.78041 -1.84967,33.75891 v 61.188024 c 0,16.603844 -3.12042,36.3253774 7.14579,50.6383637 6.85318,9.5545623 17.68067,15.7854543 29.43182,16.5922403 7.81656,0.536449 15.84679,0.02347 23.68335,0.02347 h 47.10355 30.78835 c 5.7219,0 11.70589,0.504537 17.36779,-0.375568 13.37872,-2.079602 25.50723,-10.8556 30.66914,-23.6249073 4.87956,-12.0682824 3.01384,-26.2786737 3.01384,-39.0337387 v -71.737684 c 0,-14.11492 0.88945,-27.67624 -8.13102,-39.56122 -5.80268,-7.64563 -14.78577,-13.06269 -24.23621,-14.65474 -5.73085,-0.96543 -11.57591,-0.64226 -17.36779,-0.64226 h -68.94487 -22.3676 c -3.87486,0 -7.99971,-0.39988 -11.84167,0.11192 m 19.20982,32.80714 c 4.14511,-0.32994 11.33169,0.94841 14.06028,4.41055 1.17523,1.49119 1.92545,7.71865 0.0395,8.93424 -1.38968,0.8954 -3.50724,-1.23009 -4.62641,-1.87124 -3.02516,-1.73331 -6.50187,-2.7205 -9.99963,-2.26397 -13.31189,1.73806 -14.74394,22.592096 -8.40943,31.57276 3.37224,4.780839 10.21621,6.03388 15.51443,4.104877 1.61337,-0.587355 6.4645,-4.222243 7.9634,-3.042259 0.83049,0.653813 0.71575,2.48444 0.72023,3.42099 0.0208,4.381275 -1.62283,6.483561 -5.789,7.911453 -3.50645,1.201605 -6.84185,1.583246 -10.52593,1.583246 -6.09741,0 -12.16561,-1.822981 -16.46572,-6.374638 -9.71859,-10.286715 -8.5839,-31.514209 0.72181,-41.622359 4.39143,-4.77029 10.61567,-6.27177 16.7965,-6.76365 m 43.41947,2.35151 c 13.59003,-1.60802 25.40908,11.02678 26.29142,23.92505 0.92997,13.597718 -8.77363,26.52528 -22.60734,27.911505 -19.22114,1.926361 -32.34698,-18.914761 -25.40618,-36.087495 3.75934,-9.30137 12.08483,-14.6089 21.7221,-15.74906 m 9.73754,15.39486 c -3.49961,1.06684 -2.03413,6.72462 1.57758,5.77726 3.58013,-0.93866 2.03177,-6.87758 -1.57758,-5.77726 m -18.42117,0.24159 c -3.72117,0.88538 -2.4386,6.62756 1.31522,5.80996 3.77802,-0.82288 2.47359,-6.71169 -1.31522,-5.80996 m 48.41903,12.508462 c 4.60536,-4.520002 13.50267,-7.200132 17.01859,0.263738 1.82124,3.866977 1.13865,8.774423 1.13865,12.923339 v 7.12103 c 0,0.841331 0.20551,2.079857 -0.42183,2.752401 -1.14181,1.223494 -6.09241,1.202661 -6.5995,-0.657771 -1.2918,-4.738919 0.36235,-10.644878 -0.12868,-15.545455 -0.23578,-2.356269 -1.48653,-4.907705 -4.16538,-4.97496 -7.73419,-0.19438 -5.78926,11.596185 -5.78926,16.31584 0,1.282835 0.53919,4.153668 -0.60998,5.027449 -1.20074,0.913075 -5.6461,1.024629 -6.33635,-0.581813 -0.7597,-1.768655 -0.15867,-4.905339 -0.15867,-6.819309 v -12.395853 c 0,-1.858318 -0.40236,-4.254408 0.0836,-6.051538 0.4534,-1.67608 4.42063,-1.90738 5.5469,-0.84318 0.76208,0.72027 0.42183,2.51266 0.42183,3.466082 m -51.05077,2.90116 c 1.21495,15.298318 24.33095,15.556265 24.99909,0 -1.65757,1.170214 -2.94989,2.70361 -4.73667,3.725877 -4.61273,2.639255 -10.29174,2.758465 -14.99945,0.286944 -2.00809,-1.054175 -3.44146,-2.727085 -5.26297,-4.012821 m -44.73522,80.762982 c 1.98572,-6.224035 3.86118,-12.485786 5.79584,-18.725646 1.25365,-4.042629 2.45992,-8.106094 3.76435,-12.132107 0.85101,-2.626338 1.60677,-5.285907 2.45779,-7.912245 0.34684,-1.070791 0.55025,-2.529544 1.46259,-3.279889 1.44415,-1.187889 9.02888,-1.531283 9.59175,0.656983 0.78102,3.035925 -2.36807,8.678938 -3.3362,11.590116 -3.2783,9.857075 -6.63423,19.683818 -9.912,29.539046 -1.1347,3.411759 -1.89941,10.5691761 -6.14004,11.0312512 -2.61464,0.285104 -8.89231,1.0125031 -10.94855,-0.8798416 -2.34044,-2.1534492 -3.14462,-8.2173936 -4.13854,-11.2063756 l -9.34175,-27.956596 c -0.93971,-2.816496 -1.94705,-5.61031 -2.84806,-8.439728 -0.32578,-1.023054 -1.02076,-2.604447 -0.66077,-3.677085 0.30762,-0.916764 1.28812,-1.189473 2.14913,-1.288118 2.03072,-0.232089 6.70292,-0.764321 8.3476,0.630348 2.29491,1.945621 2.91279,8.115062 3.84485,10.928392 1.24786,3.765437 2.34493,7.577029 3.59645,11.340884 2.15755,6.488831 3.55093,13.52941 6.31556,19.780611 m 32.89354,-42.649902 c 1.8802,-0.248447 6.28451,-0.724228 7.66867,0.886969 1.55389,1.808999 0.48893,7.797513 0.48893,10.113955 v 28.48408 c 0,3.683149 1.8694,13.2719982 -2.89463,13.902077 -1.9373,0.2560926 -6.36661,0.73874 -7.69919,-1.0388779 -1.54311,-2.0587655 -0.45841,-7.9665751 -0.45841,-10.4895261 v -27.956597 c 0,-3.68315 -1.86941,-13.272001 2.89463,-13.90208 m 35.78817,0.111035 c 6.87107,0.09151 14.22606,0.835274 19.73612,5.437298 10.36121,8.653885 11.28012,29.681202 2.32256,39.738983 -8.43023,9.4659452 -23.39099,8.4842996 -34.95294,7.9016953 -2.97411,-0.1498059 -3.38988,-2.4633461 -3.41988,-5.0005383 -0.0648,-5.4489 -10e-4,-10.902546 -10e-4,-16.351972 V -49.45807 c 0,-2.191691 -0.77208,-6.682418 1.11258,-8.267505 1.17338,-0.986661 2.99516,-0.699707 4.41354,-0.699707 3.59223,0 7.2013,-0.124482 10.78907,-0.07646 m -5.52611,8.516216 v 26.374147 6.593537 c 0,0.767488 -0.24,2.096218 0.27051,2.74212 0.71524,0.905161 3.43014,0.422778 4.46615,0.422778 4.79246,0 9.98043,-0.715003 13.37215,-4.487561 6.43319,-7.15557 5.91242,-23.604862 -2.31992,-29.176401 -4.63429,-3.136678 -10.47804,-2.46862 -15.78889,-2.46862 m 67.62912,45.6272751 c -2.20677,-1.033866 -4.22854,-2.4899831 -6.31556,-3.7451287 -0.76708,-0.4612836 -1.85073,-1.4197203 -2.78306,-1.4249954 -1.37732,-0.00768 -3.15989,1.2445962 -4.58509,1.5283824 -4.22696,0.842126 -8.84968,-0.3291494 -12.08141,-3.1954924 -1.40732,-1.248288 -2.68148,-2.782736 -3.4704,-4.503649 -5.95452,-12.987949 10.19831,-25.025638 21.34107,-16.718572 4.35562,3.246921 5.46845,6.759787 5.40649,11.770491 -0.0191,1.547736 0.10701,6.007651 0.14832,7.466668 0.0842,2.971048 1.49098,5.9306352 2.33964,8.8222961 z"
       id="path2448"
       sodipodi:nodetypes="ccssscscsscssssscsccscccsssscscsccccscccccscccsscsccsscsssscccsscccsssscsccccsscccsccsssscssccscscsssscccsssscccsscsccssc"
       inkscape:export-filename="C:\Users\vince\Workspace\flutter_apps\convida\web\favicon.png"
       inkscape:export-xdpi="2.1400001"
       inkscape:export-ydpi="2.1400001" />
  </g>
</svg>
